<?xml version="1.0" encoding="UTF-8"?>
<svg width="1000px" height="193px" viewBox="0 0 1000 193" version="1.1" xmlns="http://www.w3.org/2000/svg" xmlns:xlink="http://www.w3.org/1999/xlink">
    <!-- Generator: Sketch 45.2 (43514) - http://www.bohemiancoding.com/sketch -->
    <title>ta-oneline</title>
    <desc>Created with Sketch.</desc>
    <defs></defs>
    <g id="Page-1" stroke="none" stroke-width="1" fill="none" fill-rule="evenodd">
        <g id="ta-oneline" fill="#28303B">
            <path d="M32.4205357,24.5035714 L3.58125,24.5035714 C1.50982143,24.5035714 0.000892857143,22.8071429 0.000892857143,20.9232143 L0.000892857143,5.46785714 C0.000892857143,3.57946429 1.50982143,1.8875 3.58125,1.8875 L85.9517857,1.8875 C88.0232143,1.8875 89.5321429,3.57946429 89.5321429,5.46785714 L89.5321429,20.9232143 C89.5321429,22.8071429 88.0232143,24.5035714 85.9517857,24.5035714 L57.1125,24.5035714 L57.1125,130.249107 C57.1125,132.128571 55.4160714,133.825 53.5321429,133.825 L36.0008929,133.825 C34.1169643,133.825 32.4205357,132.128571 32.4205357,130.249107 L32.4205357,24.5035714 Z M107.814286,86.1388393 C115.35,86.1388393 121.573214,88.2102679 121.573214,88.2102679 C121.760714,78.5986607 118.747321,75.2058036 111.769643,75.2058036 C104.796429,75.2058036 94.9973214,76.7147321 90.6625,78.0316964 C88.0196429,78.7861607 86.7026786,77.0897321 86.3276786,74.6433036 L84.63125,64.8397321 C84.0642857,62.0138393 85.5732143,60.6924107 87.2651786,60.1299107 C88.7741071,59.5629464 100.841071,56.5450893 112.903571,56.5450893 C136.461607,56.5450893 141.930357,68.7995536 141.930357,89.3441964 L141.930357,130.245982 C141.930357,132.129911 140.233929,133.826339 138.345536,133.826339 L131.564286,133.826339 C130.242857,133.826339 129.300893,133.259375 128.358929,131.187946 L126.095536,126.098661 C121.760714,130.054018 114.7875,135.710268 103.1,135.710268 C88.0196429,135.710268 77.6580357,125.911161 77.6580357,109.888839 C77.6580357,96.509375 88.5866071,86.1388393 107.814286,86.1388393 Z M155.554464,124.779911 L160.64375,114.601339 C161.398214,112.717411 163.282143,112.337946 164.978571,113.279911 C164.978571,113.279911 173.460714,117.806696 182.130357,117.806696 C185.898214,117.806696 188.541071,116.297768 188.541071,113.092411 C188.541071,109.699554 185.898214,107.623661 175.911607,103.668304 C161.398214,98.0120536 154.6125,90.284375 154.6125,78.7888393 C154.6125,67.2933036 163.094643,56.5477679 182.317857,56.5477679 C193.438393,56.5477679 201.545536,59.753125 205.500893,62.3870536 C207.197321,63.5209821 208.14375,65.5924107 207.197321,67.4808036 L202.4875,77.0924107 C201.545536,78.7888393 199.469643,78.9763393 197.965179,78.409375 C197.965179,78.409375 189.483036,74.4540179 182.317857,74.4540179 C177.795536,74.4540179 175.911607,76.3379464 175.911607,78.7888393 C175.911607,82.1816964 179.304464,83.3111607 186.277679,86.1415179 C200.791071,91.7933036 211.724107,98.0120536 211.724107,112.717411 C211.724107,125.154911 200.791071,135.708482 181.755357,135.708482 C169.313393,135.708482 160.64375,131.753125 156.683929,128.739732 C155.554464,127.793304 154.8,126.288839 155.554464,124.779911 Z M224.108036,5.46696429 C224.108036,3.58303571 225.804464,1.88660714 227.688393,1.88660714 L243.710714,1.88660714 C245.594643,1.88660714 247.291071,3.58303571 247.291071,5.46696429 L247.291071,87.0830357 L273.304464,60.6946429 C274.621429,59.5607143 275.942857,58.43125 278.014286,58.43125 L295.166071,58.43125 C298.371429,58.43125 299.505357,61.8241071 297.616964,63.8955357 L269.532143,92.5473214 L303.085714,128.547321 C304.969643,130.623214 303.835714,133.824107 300.634821,133.824107 L280.277679,133.824107 C279.148214,133.824107 277.639286,133.069643 277.072321,132.319643 L247.291071,98.3910714 L247.291071,130.248214 C247.291071,132.132143 245.594643,133.824107 243.710714,133.824107 L227.688393,133.824107 C225.804464,133.824107 224.108036,132.132143 224.108036,130.248214 L224.108036,5.46696429 Z M388.28125,2.07276786 C388.84375,0.943303571 389.785714,0.00133928571 391.482143,0.00133928571 L393.366071,0.00133928571 C395.254464,0.00133928571 396.008929,0.943303571 396.571429,2.07276786 L454.625,128.925446 C455.758929,131.376339 454.25,133.827232 451.424107,133.827232 L435.022321,133.827232 C432.196429,133.827232 430.879464,132.697768 429.558036,130.054911 L420.321429,109.702232 L363.964286,109.702232 L354.727679,130.054911 C353.973214,131.943304 352.276786,133.827232 349.263393,133.827232 L332.866071,133.827232 C330.035714,133.827232 328.526786,131.376339 329.660714,128.925446 L388.28125,2.07276786 Z M465.707143,62.0120536 C465.707143,59.940625 467.403571,58.4316964 469.2875,58.4316964 L476.452679,58.4316964 C478.149107,58.4316964 479.091071,59.3736607 479.658036,60.6950893 L482.291964,67.6683036 C485.122321,64.6504464 494.354464,56.5477679 508.872321,56.5477679 C532.805357,56.5477679 542.421429,74.4540179 542.421429,94.0566964 L542.421429,130.248661 C542.421429,132.132589 540.725,133.824554 538.841071,133.824554 L523.385714,133.824554 C521.309821,133.824554 519.800893,132.132589 519.800893,130.248661 L519.800893,92.9227679 C519.800893,83.1236607 514.716071,76.9004464 505.666964,76.9004464 C495.863393,76.9004464 489.832143,83.690625 487.948214,88.7799107 L487.948214,130.248661 C487.948214,132.882589 486.81875,133.824554 483.238393,133.824554 L469.2875,133.824554 C467.403571,133.824554 465.707143,132.132589 465.707143,130.248661 L465.707143,62.0120536 Z M584.285268,86.1388393 C591.820982,86.1388393 598.044196,88.2102679 598.044196,88.2102679 C598.231696,78.5986607 595.213839,75.2058036 588.245089,75.2058036 C581.267411,75.2058036 571.468304,76.7147321 567.129018,78.0316964 C564.490625,78.7861607 563.178125,77.0897321 562.798661,74.6433036 L561.102232,64.8397321 C560.535268,62.0138393 562.044196,60.6924107 563.736161,60.1299107 C565.245089,59.5629464 577.312054,56.5450893 589.374554,56.5450893 C612.932589,56.5450893 618.401339,68.7995536 618.401339,89.3441964 L618.401339,130.245982 C618.401339,132.129911 616.704911,133.826339 614.820982,133.826339 L608.030804,133.826339 C606.713839,133.826339 605.771875,133.259375 604.829911,131.187946 L602.570982,126.098661 C598.231696,130.054018 591.258482,135.710268 579.570982,135.710268 C564.490625,135.710268 554.124554,125.911161 554.124554,109.888839 C554.124554,96.509375 565.057589,86.1388393 584.285268,86.1388393 Z M633.701786,5.46696429 C633.701786,3.58303571 635.398214,1.88660714 637.286607,1.88660714 L653.116964,1.88660714 C655.000893,1.88660714 656.697321,3.58303571 656.697321,5.46696429 L656.697321,130.248214 C656.697321,132.132143 655.000893,133.824107 653.116964,133.824107 L637.286607,133.824107 C635.398214,133.824107 633.701786,132.132143 633.701786,130.248214 L633.701786,5.46696429 Z M667.066518,63.3330357 C665.932589,60.8821429 667.441518,58.43125 670.271875,58.43125 L687.236161,58.43125 C688.928125,58.43125 689.870089,59.3732143 690.437054,60.5071429 L709.477232,103.105357 L709.664732,103.105357 L728.512946,60.5071429 C729.454911,58.61875 730.776339,58.43125 733.035268,58.43125 L748.115625,58.43125 C751.129018,58.43125 752.637946,60.8821429 751.320982,63.3330357 L693.642411,188.114286 C693.075446,189.24375 691.945982,190.373214 690.437054,190.373214 L674.227232,190.373214 C671.401339,190.373214 669.704911,187.922321 671.026339,185.283929 L697.789732,128.547321 L667.066518,63.3330357 Z M768.846875,78.2232143 L762.436161,78.2232143 C760.556696,78.2232143 759.047768,76.5267857 759.047768,74.6428571 L759.047768,62.0133929 C759.047768,59.9375 760.556696,58.4285714 762.436161,58.4285714 L768.846875,58.4285714 L768.846875,37.5089286 C768.846875,35.625 770.543304,33.9285714 772.427232,33.9285714 L787.887054,33.7410714 C789.770982,33.7410714 791.275446,35.4375 791.275446,37.3214286 L791.275446,58.4285714 L807.864732,58.4285714 C809.936161,58.4285714 811.445089,59.9375 811.445089,62.0133929 L811.445089,74.6428571 C811.445089,76.5267857 809.936161,78.2232143 807.864732,78.2232143 L791.275446,78.2232143 L791.275446,108.379464 C791.275446,113.65625 794.101339,114.410714 797.119196,114.410714 C800.324554,114.410714 804.279911,113.09375 806.355804,112.339286 C808.427232,111.584821 809.936161,112.53125 810.503125,114.410714 L814.270982,126.290179 C815.025446,128.169643 814.083482,130.053571 812.199554,130.808036 C811.257589,131.375 799.003125,135.709821 789.770982,135.709821 C775.257589,135.709821 768.846875,126.665179 768.846875,111.397321 L768.846875,78.2232143 Z M827.126786,62.0120536 C827.126786,59.940625 828.823214,58.4316964 830.711607,58.4316964 L846.354464,58.4316964 C848.238393,58.4316964 849.930357,59.940625 849.930357,62.0120536 L849.930357,130.248661 C849.930357,132.132589 848.238393,133.824554 846.354464,133.824554 L830.711607,133.824554 C828.823214,133.824554 827.126786,132.132589 827.126786,130.248661 L827.126786,62.0120536 Z M825.430357,18.6638393 C825.430357,11.4986607 831.086607,5.65491071 838.247321,5.65491071 C845.6,5.65491071 851.439286,11.4986607 851.439286,18.6638393 C851.439286,25.8245536 845.6,31.6683036 838.247321,31.6683036 C831.086607,31.6683036 825.430357,25.8245536 825.430357,18.6638393 Z M903.163393,56.546875 C914.846429,56.546875 923.895536,61.2611607 931.05625,69.9308036 C932.377679,71.6227679 932.002679,73.8861607 930.114286,75.2075893 L921.444643,83.4977679 C919.748214,85.0066964 918.051786,84.0647321 916.734821,82.9352679 C913.716964,79.5424107 909.007143,76.9040179 903.725893,76.9040179 C893.551786,76.9040179 885.252679,85.5736607 885.252679,96.1272321 C885.252679,106.868304 893.364286,115.354911 903.538393,115.354911 C911.641071,115.354911 915.225893,111.395089 918.61875,108.189732 C919.940179,106.868304 921.824107,106.493304 923.333036,107.622768 L931.435714,114.600446 C933.319643,116.109375 934.074107,117.993304 932.757143,119.881696 C926.346429,129.868304 916.355357,135.707589 902.971429,135.707589 C881.676786,135.707589 863.016071,118.747768 863.016071,96.1272321 C863.016071,73.8861607 882.051786,56.546875 903.163393,56.546875 Z M942.609375,124.779911 L947.698661,114.601339 C948.453125,112.717411 950.337054,112.337946 952.033482,113.279911 C952.033482,113.279911 960.515625,117.806696 969.185268,117.806696 C972.957589,117.806696 975.595982,116.297768 975.595982,113.092411 C975.595982,109.699554 972.957589,107.623661 962.966518,103.668304 C948.453125,98.0120536 941.667411,90.284375 941.667411,78.7888393 C941.667411,67.2933036 950.145089,56.5477679 969.372768,56.5477679 C980.493304,56.5477679 988.600446,59.753125 992.555804,62.3870536 C994.252232,63.5209821 995.194196,65.5924107 994.252232,67.4808036 L989.542411,77.0924107 C988.600446,78.7888393 986.529018,78.9763393 985.020089,78.409375 C985.020089,78.409375 976.537946,74.4540179 969.372768,74.4540179 C964.850446,74.4540179 962.966518,76.3379464 962.966518,78.7888393 C962.966518,82.1816964 966.354911,83.3111607 973.332589,86.1415179 C987.845982,91.7933036 998.779018,98.0120536 998.779018,112.717411 C998.779018,125.154911 987.845982,135.708482 968.805804,135.708482 C956.368304,135.708482 947.698661,131.753125 943.738839,128.739732 C942.609375,127.793304 941.854911,126.288839 942.609375,124.779911 Z M108.189286,119.687946 C114.220536,119.687946 120.064286,114.598661 121.198214,112.339732 L121.198214,101.969196 C121.198214,101.969196 116.104464,99.7102679 110.640179,99.7102679 C103.2875,99.7102679 98.3901786,103.857589 98.3901786,109.888839 C98.3901786,115.540625 102.345536,119.687946 108.189286,119.687946 Z M411.084821,88.778125 L392.236607,47.309375 L391.669643,47.309375 L373.200893,88.778125 L411.084821,88.778125 Z M584.660268,119.687946 C590.695982,119.687946 596.535268,114.598661 597.664732,112.339732 L597.664732,101.969196 C597.664732,101.969196 592.575446,99.7102679 587.111161,99.7102679 C579.758482,99.7102679 574.861161,103.857589 574.861161,109.888839 C574.861161,115.540625 578.816518,119.687946 584.660268,119.687946 Z" id="Combined-Shape"></path>
        </g>
    </g>
</svg>