<?xml version="1.0" encoding="UTF-8"?>
<svg width="889px" height="474px" viewBox="0 0 889 474" version="1.1" xmlns="http://www.w3.org/2000/svg" xmlns:xlink="http://www.w3.org/1999/xlink">
    <!-- Generator: Sketch 45.2 (43514) - http://www.bohemiancoding.com/sketch -->
    <title>ta-twolines</title>
    <desc>Created with Sketch.</desc>
    <defs></defs>
    <g id="Page-1" stroke="none" stroke-width="1" fill="none" fill-rule="evenodd">
        <g id="ta-twolines" fill="#28303B">
            <path d="M109.3676,338.1733 L84.1686,282.7323 L83.4126,282.7323 L58.7176,338.1733 L109.3676,338.1733 Z M0.5046,391.8493 L78.8776,222.2533 C79.6336,220.7413 80.8926,219.4813 83.1606,219.4813 L85.6806,219.4813 C88.1996,219.4813 89.2076,220.7413 89.9656,222.2533 L167.5806,391.8493 C169.0926,395.1243 167.0766,398.4003 163.2956,398.4003 L141.3716,398.4003 C137.5926,398.4003 135.8286,396.8883 134.0646,393.3613 L121.7176,366.1443 L46.3696,366.1443 L34.0196,393.3613 C33.0126,395.8803 30.7446,398.4003 26.7136,398.4003 L4.7896,398.4003 C1.0086,398.4003 -1.0074,395.1243 0.5046,391.8493 L0.5046,391.8493 Z M813.4176,386.3043 L820.2206,372.6963 C821.2276,370.1773 823.7496,369.6733 826.0166,370.9333 C826.0166,370.9333 837.3566,376.9803 848.9486,376.9803 C853.9876,376.9803 857.5166,374.9643 857.5166,370.6813 C857.5166,366.1443 853.9876,363.3723 840.6326,358.0793 C821.2276,350.5213 812.1576,340.1893 812.1576,324.8163 C812.1576,309.4443 823.4976,295.0813 849.2006,295.0813 C864.0676,295.0813 874.9036,299.3643 880.1966,302.8923 C882.4646,304.4053 883.7236,307.1773 882.4646,309.6963 L876.1636,322.5483 C874.9036,324.8163 872.1326,325.0683 870.1166,324.3123 C870.1166,324.3123 858.7766,319.0213 849.2006,319.0213 C843.1516,319.0213 840.6326,321.5403 840.6326,324.8163 C840.6326,329.3533 845.1696,330.8643 854.4916,334.6443 C873.8956,342.2043 888.5136,350.5213 888.5136,370.1773 C888.5136,386.8083 873.8956,400.9193 848.4446,400.9193 C831.8116,400.9193 820.2206,395.6283 814.9296,391.5973 C813.4176,390.3353 812.4096,388.3193 813.4176,386.3043 L813.4176,386.3043 Z M762.6146,295.0813 C778.2396,295.0813 790.3356,301.3803 799.9116,312.9723 C801.6756,315.2413 801.1716,318.2653 798.6516,320.0283 L787.0596,331.1163 C784.7906,333.1323 782.5226,331.8723 780.7596,330.3613 C776.7276,325.8233 770.4276,322.2963 763.3706,322.2963 C749.7636,322.2963 738.6756,333.8883 738.6756,348.0013 C738.6756,362.3643 749.5116,373.7043 763.1186,373.7043 C773.9546,373.7043 778.7436,368.4113 783.2786,364.1283 C785.0446,362.3643 787.5636,361.8603 789.5796,363.3723 L800.4156,372.6963 C802.9346,374.7123 803.9426,377.2323 802.1796,379.7533 C793.6106,393.1093 780.2556,400.9193 762.3626,400.9193 C733.8886,400.9193 708.9386,378.2393 708.9386,348.0013 C708.9386,318.2653 734.3916,295.0813 762.6146,295.0813 L762.6146,295.0813 Z M661.6656,302.3883 C661.6656,299.6163 663.9326,297.6013 666.4526,297.6013 L687.3686,297.6013 C689.8886,297.6013 692.1556,299.6163 692.1556,302.3883 L692.1556,393.6123 C692.1556,396.1323 689.8886,398.4003 687.3686,398.4003 L666.4526,398.4003 C663.9326,398.4003 661.6656,396.1323 661.6656,393.6123 L661.6656,302.3883 Z M659.3956,244.4293 C659.3956,234.8533 666.9566,227.0403 676.5326,227.0403 C686.3606,227.0403 694.1736,234.8533 694.1736,244.4293 C694.1736,254.0053 686.3606,261.8183 676.5326,261.8183 C666.9566,261.8183 659.3956,254.0053 659.3956,244.4293 L659.3956,244.4293 Z M585.7166,324.0603 L577.1476,324.0603 C574.6286,324.0603 572.6106,321.7923 572.6106,319.2733 L572.6106,302.3883 C572.6106,299.6163 574.6286,297.6013 577.1476,297.6013 L585.7166,297.6013 L585.7166,269.6283 C585.7166,267.1093 587.9836,264.8413 590.5036,264.8413 L611.1676,264.5893 C613.6866,264.5893 615.7026,266.8573 615.7026,269.3763 L615.7026,297.6013 L637.8806,297.6013 C640.6516,297.6013 642.6676,299.6163 642.6676,302.3883 L642.6676,319.2733 C642.6676,321.7923 640.6516,324.0603 637.8806,324.0603 L615.7026,324.0603 L615.7026,364.3803 C615.7026,371.4373 619.4836,372.4443 623.5146,372.4443 C627.8006,372.4443 633.0916,370.6813 635.8626,369.6733 C638.6366,368.6633 640.6516,369.9253 641.4076,372.4443 L646.4466,388.3193 C647.4546,390.8413 646.1946,393.3613 643.6756,394.3683 C642.4156,395.1243 626.0346,400.9193 613.6866,400.9193 C594.2826,400.9193 585.7166,388.8233 585.7166,368.4113 L585.7166,324.0603 Z M451.3486,304.1523 C449.8376,300.8763 451.8526,297.6013 455.6346,297.6013 L478.3136,297.6013 C480.5816,297.6013 481.8416,298.8603 482.5966,300.3723 L508.0506,357.3233 L508.3026,357.3233 L533.5016,300.3723 C534.7616,297.8533 536.5246,297.6013 539.5506,297.6013 L559.7106,297.6013 C563.7416,297.6013 565.7576,300.8763 563.9936,304.1523 L486.8826,470.9763 C486.1266,472.4873 484.6146,473.9993 482.5966,473.9993 L460.9256,473.9993 C457.1456,473.9993 454.8786,470.7243 456.6416,467.1963 L492.4256,391.3453 L451.3486,304.1523 Z M408.7636,226.7883 C408.7636,224.2683 411.0316,222.0013 413.5536,222.0013 L434.7216,222.0013 C437.2406,222.0013 439.5096,224.2683 439.5096,226.7883 L439.5096,393.6123 C439.5096,396.1323 437.2406,398.4003 434.7216,398.4003 L413.5536,398.4003 C411.0316,398.4003 408.7636,396.1323 408.7636,393.6123 L408.7636,226.7883 Z M340.1486,379.4993 C348.2136,379.4993 356.0236,372.6963 357.5356,369.6733 L357.5356,355.8123 C357.5356,355.8123 350.7326,352.7883 343.4246,352.7883 C333.5966,352.7883 327.0456,358.3333 327.0456,366.3963 C327.0456,373.9563 332.3366,379.4993 340.1486,379.4993 L340.1486,379.4993 Z M339.6446,334.6443 C349.7246,334.6443 358.0396,337.4173 358.0396,337.4173 C358.2916,324.5643 354.2606,320.0283 344.9356,320.0283 C335.6116,320.0283 322.5086,322.0443 316.7136,323.8083 C313.1836,324.8163 311.4206,322.5483 310.9166,319.2733 L308.6486,306.1693 C307.8926,302.3883 309.9086,300.6243 312.1766,299.8683 C314.1916,299.1123 330.3206,295.0813 346.4476,295.0813 C377.9476,295.0813 385.2566,311.4603 385.2566,338.9293 L385.2566,393.6123 C385.2566,396.1323 382.9886,398.4003 380.4696,398.4003 L371.3966,398.4003 C369.6336,398.4003 368.3716,397.6443 367.1116,394.8723 L364.0886,388.0683 C358.2916,393.3613 348.9696,400.9193 333.3446,400.9193 C313.1836,400.9193 299.3246,387.8163 299.3246,366.3963 C299.3246,348.5053 313.9396,334.6443 339.6446,334.6443 L339.6446,334.6443 Z M180.5066,302.3883 C180.5066,299.6163 182.7736,297.6013 185.2956,297.6013 L194.8696,297.6013 C197.1386,297.6013 198.3986,298.8603 199.1546,300.6243 L202.6816,309.9483 C206.4636,305.9173 218.8106,295.0813 238.2156,295.0813 C270.2176,295.0813 283.0706,319.0213 283.0706,345.2283 L283.0706,393.6123 C283.0706,396.1323 280.8016,398.4003 278.2816,398.4003 L257.6176,398.4003 C254.8466,398.4003 252.8306,396.1323 252.8306,393.6123 L252.8306,343.7163 C252.8306,330.6123 246.0256,322.2963 233.9306,322.2963 C220.8266,322.2963 212.7626,331.3683 210.2426,338.1733 L210.2426,393.6123 C210.2426,397.1403 208.7306,398.4003 203.9416,398.4003 L185.2956,398.4003 C182.7736,398.4003 180.5066,396.1323 180.5066,393.6123 L180.5066,302.3883 Z M308.8946,4.7883 C308.8946,2.2693 311.1626,0.0003 313.6836,0.0003 L335.1036,0.0003 C337.6236,0.0003 339.8906,2.2693 339.8906,4.7883 L339.8906,113.9033 L374.6666,78.6243 C376.4296,77.1123 378.1956,75.6003 380.9676,75.6003 L403.8986,75.6003 C408.1816,75.6003 409.6956,80.1363 407.1746,82.9083 L369.6276,121.2123 L414.4826,169.3443 C417.0026,172.1153 415.4906,176.4003 411.2076,176.4003 L383.9906,176.4003 C382.4786,176.4003 380.4636,175.3923 379.7076,174.3843 L339.8906,129.0243 L339.8906,171.6113 C339.8906,174.1323 337.6236,176.4003 335.1036,176.4003 L313.6836,176.4003 C311.1626,176.4003 308.8946,174.1323 308.8946,171.6113 L308.8946,4.7883 Z M216.6646,164.3043 L223.4676,150.6953 C224.4746,148.1763 226.9966,147.6723 229.2636,148.9323 C229.2636,148.9323 240.6036,154.9803 252.1956,154.9803 C257.2346,154.9803 260.7636,152.9643 260.7636,148.6803 C260.7636,144.1443 257.2346,141.3713 243.8796,136.0793 C224.4746,128.5203 215.4046,118.1883 215.4046,102.8163 C215.4046,87.4443 226.7446,73.0803 252.4476,73.0803 C267.3146,73.0803 278.1506,77.3643 283.4436,80.8923 C285.7116,82.4043 286.9716,85.1763 285.7116,87.6963 L279.4106,100.5483 C278.1506,102.8163 275.3796,103.0683 273.3636,102.3123 C273.3636,102.3123 262.0236,97.0203 252.4476,97.0203 C246.3986,97.0203 243.8796,99.5403 243.8796,102.8163 C243.8796,107.3523 248.4166,108.8633 257.7386,112.6443 C277.1426,120.2043 291.7606,128.5203 291.7606,148.1763 C291.7606,164.8083 277.1426,178.9193 251.6916,178.9193 C235.0586,178.9193 223.4676,173.6273 218.1766,169.5963 C216.6646,168.3353 215.6566,166.3193 216.6646,164.3043 L216.6646,164.3043 Z M152.7346,157.4993 C160.7996,157.4993 168.6096,150.6953 170.1216,147.6723 L170.1216,133.8123 C170.1216,133.8123 163.3186,130.7883 156.0106,130.7883 C146.1816,130.7883 139.6316,136.3323 139.6316,144.3963 C139.6316,151.9553 144.9226,157.4993 152.7346,157.4993 L152.7346,157.4993 Z M152.2306,112.6443 C162.3106,112.6443 170.6256,115.4163 170.6256,115.4163 C170.8776,102.5643 166.8466,98.0273 157.5216,98.0273 C148.1976,98.0273 135.0946,100.0443 129.2996,101.8083 C125.7696,102.8163 124.0066,100.5483 123.5026,97.2723 L121.2346,84.1683 C120.4786,80.3883 122.4946,78.6243 124.7626,77.8683 C126.7776,77.1123 142.9066,73.0803 159.0336,73.0803 C190.5336,73.0803 197.8426,89.4603 197.8426,116.9283 L197.8426,171.6113 C197.8426,174.1323 195.5746,176.4003 193.0556,176.4003 L183.9826,176.4003 C182.2196,176.4003 180.9576,175.6443 179.6976,172.8713 L176.6746,166.0683 C170.8776,171.3603 161.5556,178.9193 145.9306,178.9193 C125.7696,178.9193 111.9106,165.8163 111.9106,144.3963 C111.9106,126.5043 126.5256,112.6443 152.2306,112.6443 L152.2306,112.6443 Z M51.1256,30.2403 L8.5686,30.2403 C5.7976,30.2403 3.7816,27.9723 3.7816,25.4523 L3.7816,4.7883 C3.7816,2.2693 5.7976,0.0003 8.5686,0.0003 L126.6916,0.0003 C129.4636,0.0003 131.4806,2.2693 131.4806,4.7883 L131.4806,25.4523 C131.4806,27.9723 129.4636,30.2403 126.6916,30.2403 L84.1376,30.2403 L84.1376,171.6113 C84.1376,174.1323 81.8676,176.4003 79.3476,176.4003 L55.9126,176.4003 C53.3926,176.4003 51.1256,174.1323 51.1256,171.6113 L51.1256,30.2403 Z" id="Fill-1"></path>
        </g>
    </g>
</svg>